<?xml version="1.0" encoding="UTF-8"?>
<svg id="Layer_1" xmlns="http://www.w3.org/2000/svg" xmlns:xlink="http://www.w3.org/1999/xlink" version="1.1" viewBox="0 0 795.69 158.88">
  <!-- Generator: Adobe Illustrator 30.2.1, SVG Export Plug-In . SVG Version: 2.1.1 Build 1)  -->
  <defs>
    <style>
      .st0 {
        fill: url(#linear-gradient2);
      }

      .st1 {
        fill: url(#linear-gradient1);
      }

      .st2 {
        fill: url(#linear-gradient3);
      }

      .st3 {
        fill: url(#linear-gradient);
      }

      .st4 {
        fill: #0098d7;
      }
    </style>
    <linearGradient id="linear-gradient" x1="519.55" y1="56.49" x2="762.93" y2="56.49" gradientUnits="userSpaceOnUse">
      <stop offset=".02" stop-color="#70809e"/>
      <stop offset="1" stop-color="#d3dce8"/>
    </linearGradient>
    <linearGradient id="linear-gradient1" x1="519.55" y1="102.68" x2="762.93" y2="102.68" xlink:href="#linear-gradient"/>
    <linearGradient id="linear-gradient2" x1="519.55" y1="79.41" x2="762.93" y2="79.41" xlink:href="#linear-gradient"/>
    <linearGradient id="linear-gradient3" x1="519.55" y1="79.41" x2="762.93" y2="79.41" xlink:href="#linear-gradient"/>
  </defs>
  <g>
    <path class="st3" d="M623.83,23.39h12.74c19.83,0,35.91,14.82,35.91,33.1s-16.08,33.1-35.91,33.1h-12.74l-22.74-19.61h34.41c8.49,0,15.38-5.72,15.38-12.78s-6.88-12.78-15.38-12.78h-36.86l11.38-20.99,13.81-.04Z"/>
    <polygon class="st1" points="601.1 69.98 590.76 89.39 643.11 135.39 681.09 135.39 601.1 69.98"/>
    <path class="st0" d="M742.86,135.44l-8.37-21.14h-41.68l-7.91,21.14h-28.29l41.99-104.15c1.92-4.77,6.55-7.89,11.69-7.89h8.2c5.16,0,9.79,3.14,11.71,7.93l41.55,104.11h-28.9ZM713.96,56.49l-13.69,36.96h27.08l-13.39-36.96Z"/>
    <path class="st2" d="M592.34,44.36l11.39-20.97h-77.3c-5.37,0-10.65,2-14.36,5.87-3.53,3.68-5.29,8.05-5.29,13.12v73.37c0,5.36,1.97,10.65,5.82,14.37,3.65,3.53,8.04,5.3,13.17,5.3h0s61.19,0,61.19,0v-19.32h-61.38l-.26-26.82,48.76.09,10.6-19.41h-59.54c-.02-4.78-.09-25.59-.09-25.59l67.28-.03Z"/>
  </g>
  <g>
    <path class="st4" d="M114.86,135.49c-4.95.02-8.97-3.99-8.97-8.94V44.74c0-.8-.27-1.48-.82-2.03-.54-.56-1.21-.83-2-.83h-58.17c-.79,0-1.45.27-2,.83-.55.55-.82,1.23-.82,2.03v86.9c0,.74-.27,1.39-.82,1.94-.54.55-1.18.83-1.9.83h-12.71c-.79,0-1.44-.28-1.95-.83-.52-.55-.77-1.2-.77-1.94V44.74c0-6.73,2.64-12.31,7.92-16.77,3.63-3.07,8.35-4.58,13.1-4.58h58.12c6.24,0,11.52,2.47,15.84,7.41,3.37,3.86,5.13,8.89,5.13,14.01v81.73c0,4.93-3.98,8.92-8.91,8.94h-.28Z"/>
    <path class="st4" d="M215.66,103.3h-60.45v14.12c0,.68.24,1.25.73,1.72.48.47,1.03.7,1.65.7h70.33c.66,0,1.21.23,1.65.7.43.47.65,1.01.65,1.64v10.92c0,.63-.22,1.17-.65,1.64s-.98.7-1.65.7h-70.33c-5.5,0-10.11-2.27-13.83-6.81-2.59-3.15-3.86-7.19-3.86-11.27v-43.71c0-4.07,1.27-8.12,3.86-11.27,3.73-4.54,8.34-6.81,13.83-6.81h58.07c5.57,0,10.19,2.28,13.88,6.84,2.56,3.16,3.81,7.2,3.81,11.27v28.79c0,.46-.34.83-.8.83-3.44.01-16.83.06-16.89,0ZM218.04,73.59c0-.68-.23-1.25-.69-1.72-.46-.47-1.02-.7-1.68-.7h-58.07c-.61,0-1.16.23-1.65.7-.49.47-.73,1.04-.73,1.72v14.12h60.45c.66,0,1.23-.23,1.68-.7.46-.47.69-1.04.69-1.72v-11.7Z"/>
    <path class="st4" d="M264.62,33.52v22.05h54.6c5.83,0,10.83,1.77,15.01,5.3,4.17,3.54,6.26,7.77,6.26,12.71v43.83c0,4.94-2.09,9.18-6.26,12.71-4.17,3.54-9.18,5.3-15.01,5.3h-51.74c-5.89,0-10.91-1.77-15.05-5.3-4.14-3.54-6.22-7.77-6.22-12.71V33.52c0-5.05,4.13-9.13,9.18-9.07h.27c4.97.06,8.97,4.1,8.97,9.07ZM264.62,71.17v46.25c0,.68.27,1.25.83,1.72.55.47,1.22.7,2.02.7h51.74c.73,0,1.4-.23,1.98-.7.58-.47.87-1.04.87-1.72v-43.83c0-.68-.29-1.25-.87-1.72-.58-.47-1.24-.7-1.98-.7h-54.6Z"/>
    <path class="st4" d="M483.7,135.43c-4.16-.03-7.52-3.41-7.52-7.58v-54.26c0-.68-.23-1.25-.69-1.72-.46-.47-1.02-.7-1.68-.7h-28.26v61.92c0,.63-.22,1.17-.65,1.64s-.98.7-1.65.7h-10.72c-.61,0-1.15-.23-1.61-.7-.46-.47-.69-1.01-.69-1.64v-61.92h-28.26c-.61,0-1.16.23-1.65.7-.49.47-.73,1.04-.73,1.72v59.51c0,.63-.22,1.17-.65,1.64-.44.47-.98.7-1.65.7h-10.72c-.61,0-1.15-.23-1.61-.7-.46-.47-.69-1.01-.69-1.64v-59.45c0-4.07,1.27-8.12,3.86-11.27,3.73-4.54,8.34-6.81,13.83-6.81h71.83c5.56,0,10.2,2.28,13.92,6.83,2.58,3.15,3.84,7.2,3.84,11.28v54.17c0,4.21-3.43,7.62-7.64,7.58h-.23Z"/>
    <g>
      <path class="st4" d="M361.41,57.91c4.23,0,7.66,3.43,7.66,7.66v67.52c0,.63-.22,1.17-.65,1.64-.44.47-.98.7-1.65.7h-10.72c-.61,0-1.15-.23-1.61-.7-.46-.47-.69-1.01-.69-1.64v-67.52c0-4.23,3.43-7.66,7.66-7.66h0Z"/>
      <circle class="st4" cx="362.38" cy="33.94" r="9.49"/>
    </g>
  </g>
</svg>