<svg width="567" height="105" viewBox="0 0 567 105" fill="none" xmlns="http://www.w3.org/2000/svg">
<path d="M272.973 63.0493V84.0493H325.684C328.494 84.0493 330.861 83.0141 332.833 80.8944C334.954 78.7747 335.989 76.4084 335.989 73.7464C335.989 70.9366 334.954 68.5211 332.833 66.4014C330.861 64.1831 328.494 63.0493 325.684 63.0493H272.973ZM252.016 0.0492687H326.374C334.51 0.0492687 341.61 3.10566 347.774 9.26763C353.937 15.4296 356.994 22.5775 356.994 30.662C356.994 39.1901 354.332 46.4859 349.006 52.5C354.332 58.514 356.994 65.2183 356.994 72.662V74.338C356.994 82.4718 353.937 89.6197 347.774 95.7324C341.758 101.894 334.608 104.951 326.374 104.951H252.016V0V0.0492687ZM273.022 42.0493H325.733C328.396 42.0493 330.762 41.0141 332.883 38.8944C335.003 36.7746 336.038 34.4085 336.038 31.7465C336.038 28.7887 335.052 26.2747 333.08 24.2042C331.107 22.0845 328.691 21.0493 325.733 21.0493H273.022V42.0493ZM156.703 105C148.567 105 141.417 101.993 135.303 95.9789C129.139 89.8169 126.082 82.6197 126.082 74.338V0H231.06V21H147.088V42H231.06V63H147.088V73.6972C147.088 76.507 148.074 78.9225 150.046 81.0423C152.166 83.0141 154.583 84 157.393 84H231.11V105H156.703ZM399.005 105H378V31.5H399.005V105ZM398.956 21.0493H377.951V0.0492687H398.956V21.0493ZM567 105H545.994V31.3028C545.994 28.493 544.959 26.1267 542.839 24.1549C540.866 22.0352 538.5 21 535.689 21H503.984V104.951H482.978V21H451.273C448.462 21 445.996 22.0352 443.926 24.1549C441.953 26.1267 440.967 28.493 440.967 31.3028V105H419.962V30.7112C419.962 22.4296 423.019 15.331 429.182 9.3169C435.346 3.15493 442.496 0.0986126 450.582 0.0986126H536.281C544.515 0.0986126 551.665 3.15493 557.681 9.3169C563.844 15.331 566.901 22.4788 566.951 30.7112V105H567ZM105.027 105H84.0218V31.3028C84.0218 28.493 82.9863 26.1267 80.866 24.1549C78.8936 22.0352 76.5271 21 73.7165 21H21.0055V104.951H0V0H74.3082C82.592 0 89.6923 3.05631 95.7079 9.21828C101.872 15.2324 104.929 22.3802 104.929 30.6126V104.901L105.027 105Z" fill="#00AAE7"/>
</svg>
